<mxfile host="app.diagrams.net" modified="2020-10-27T07:30:16.576Z" agent="5.0 (Windows NT 10.0; Win64; x64) AppleWebKit/537.36 (KHTML, like Gecko) Chrome/86.0.4240.111 Safari/537.36 Edg/86.0.622.51" etag="0DuXO4YeDGjy8zS5XXkX" version="13.8.3" type="github">
  <diagram id="C5RBs43oDa-KdzZeNtuy" name="Page-1">
    <mxGraphModel dx="1014" dy="567" grid="1" gridSize="10" guides="1" tooltips="1" connect="1" arrows="1" fold="1" page="1" pageScale="1" pageWidth="827" pageHeight="1169" math="0" shadow="0">
      <root>
        <mxCell id="WIyWlLk6GJQsqaUBKTNV-0" />
        <mxCell id="WIyWlLk6GJQsqaUBKTNV-1" parent="WIyWlLk6GJQsqaUBKTNV-0" />
        <mxCell id="rVbdCpr6x1qe2M_tCrd3-0" value="&lt;&lt;Form&gt;&gt;&#xa;Form1" style="swimlane;fontStyle=1;align=center;verticalAlign=top;childLayout=stackLayout;horizontal=1;startSize=40;horizontalStack=0;resizeParent=1;resizeParentMax=0;resizeLast=0;collapsible=1;marginBottom=0;" vertex="1" parent="WIyWlLk6GJQsqaUBKTNV-1">
          <mxGeometry x="340" y="30" width="160" height="90" as="geometry" />
        </mxCell>
        <mxCell id="rVbdCpr6x1qe2M_tCrd3-2" value="" style="line;strokeWidth=1;fillColor=none;align=left;verticalAlign=middle;spacingTop=-1;spacingLeft=3;spacingRight=3;rotatable=0;labelPosition=right;points=[];portConstraint=eastwest;" vertex="1" parent="rVbdCpr6x1qe2M_tCrd3-0">
          <mxGeometry y="40" width="160" height="8" as="geometry" />
        </mxCell>
        <mxCell id="rVbdCpr6x1qe2M_tCrd3-3" value="command1Click()&#xa;Command2Click()" style="text;strokeColor=none;fillColor=none;align=left;verticalAlign=top;spacingLeft=4;spacingRight=4;overflow=hidden;rotatable=0;points=[[0,0.5],[1,0.5]];portConstraint=eastwest;" vertex="1" parent="rVbdCpr6x1qe2M_tCrd3-0">
          <mxGeometry y="48" width="160" height="42" as="geometry" />
        </mxCell>
        <mxCell id="rVbdCpr6x1qe2M_tCrd3-4" value="&lt;&lt;ADO Class&gt;&gt;&#xa;Author" style="swimlane;fontStyle=1;align=center;verticalAlign=top;childLayout=stackLayout;horizontal=1;startSize=40;horizontalStack=0;resizeParent=1;resizeParentMax=0;resizeLast=0;collapsible=1;marginBottom=0;" vertex="1" parent="WIyWlLk6GJQsqaUBKTNV-1">
          <mxGeometry x="150" y="240" width="170" height="274" as="geometry" />
        </mxCell>
        <mxCell id="rVbdCpr6x1qe2M_tCrd3-6" value="" style="line;strokeWidth=1;fillColor=none;align=left;verticalAlign=middle;spacingTop=-1;spacingLeft=3;spacingRight=3;rotatable=0;labelPosition=right;points=[];portConstraint=eastwest;" vertex="1" parent="rVbdCpr6x1qe2M_tCrd3-4">
          <mxGeometry y="40" width="170" height="8" as="geometry" />
        </mxCell>
        <mxCell id="rVbdCpr6x1qe2M_tCrd3-7" value="eof()&#xa;getOne()&#xa;query()&#xa;recordset()&#xa;name()&#xa;id()&#xa;fName()&#xa;lName()&#xa;phone&#xa;address()&#xa;city()&#xa;state()&#xa;zip()&#xa;contract&#xa;getNew()" style="text;strokeColor=none;fillColor=none;align=left;verticalAlign=top;spacingLeft=4;spacingRight=4;overflow=hidden;rotatable=0;points=[[0,0.5],[1,0.5]];portConstraint=eastwest;" vertex="1" parent="rVbdCpr6x1qe2M_tCrd3-4">
          <mxGeometry y="48" width="170" height="226" as="geometry" />
        </mxCell>
        <mxCell id="rVbdCpr6x1qe2M_tCrd3-8" value="&lt;&lt;ADO Class&gt;&gt;&#xa;Authors" style="swimlane;fontStyle=1;align=center;verticalAlign=top;childLayout=stackLayout;horizontal=1;startSize=40;horizontalStack=0;resizeParent=1;resizeParentMax=0;resizeLast=0;collapsible=1;marginBottom=0;" vertex="1" parent="WIyWlLk6GJQsqaUBKTNV-1">
          <mxGeometry x="520" y="240" width="160" height="344" as="geometry" />
        </mxCell>
        <mxCell id="rVbdCpr6x1qe2M_tCrd3-10" value="" style="line;strokeWidth=1;fillColor=none;align=left;verticalAlign=middle;spacingTop=-1;spacingLeft=3;spacingRight=3;rotatable=0;labelPosition=right;points=[];portConstraint=eastwest;" vertex="1" parent="rVbdCpr6x1qe2M_tCrd3-8">
          <mxGeometry y="40" width="160" height="8" as="geometry" />
        </mxCell>
        <mxCell id="rVbdCpr6x1qe2M_tCrd3-11" value="addNew()&#xa;bof()&#xa;eof()&#xa;getAll()&#xa;moveFirst()&#xa;moveLast()&#xa;moveNext()&#xa;movePrevious()&#xa;query()&#xa;recordset()&#xa;name()&#xa;id()&#xa;fName()&#xa;lName()&#xa;phone()&#xa;address()&#xa;city()&#xa;zip()&#xa;contract()&#xa;getNew()&#xa;" style="text;strokeColor=none;fillColor=none;align=left;verticalAlign=top;spacingLeft=4;spacingRight=4;overflow=hidden;rotatable=0;points=[[0,0.5],[1,0.5]];portConstraint=eastwest;" vertex="1" parent="rVbdCpr6x1qe2M_tCrd3-8">
          <mxGeometry y="48" width="160" height="296" as="geometry" />
        </mxCell>
        <mxCell id="rVbdCpr6x1qe2M_tCrd3-15" value="" style="edgeStyle=none;html=1;endArrow=open;endSize=12;dashed=1;verticalAlign=bottom;entryX=0.25;entryY=0;entryDx=0;entryDy=0;exitX=1;exitY=0.5;exitDx=0;exitDy=0;" edge="1" parent="WIyWlLk6GJQsqaUBKTNV-1" source="rVbdCpr6x1qe2M_tCrd3-3" target="rVbdCpr6x1qe2M_tCrd3-8">
          <mxGeometry width="160" relative="1" as="geometry">
            <mxPoint x="330" y="180" as="sourcePoint" />
            <mxPoint x="490" y="180" as="targetPoint" />
          </mxGeometry>
        </mxCell>
        <mxCell id="rVbdCpr6x1qe2M_tCrd3-16" value="" style="edgeStyle=none;html=1;endArrow=open;endSize=12;dashed=1;verticalAlign=bottom;entryX=0.75;entryY=0;entryDx=0;entryDy=0;exitX=0;exitY=0.5;exitDx=0;exitDy=0;" edge="1" parent="WIyWlLk6GJQsqaUBKTNV-1" source="rVbdCpr6x1qe2M_tCrd3-3" target="rVbdCpr6x1qe2M_tCrd3-4">
          <mxGeometry width="160" relative="1" as="geometry">
            <mxPoint x="330" y="180" as="sourcePoint" />
            <mxPoint x="490" y="180" as="targetPoint" />
          </mxGeometry>
        </mxCell>
      </root>
    </mxGraphModel>
  </diagram>
</mxfile>
